<svg id="Log_out" data-name="Log out" xmlns="http://www.w3.org/2000/svg" xmlns:xlink="http://www.w3.org/1999/xlink" width="34" height="34" viewBox="0 0 34 34">
  <defs>
    <clipPath id="clip-path">
      <rect id="Rectangle_7" data-name="Rectangle 7" width="34" height="34" fill="none"/>
    </clipPath>
  </defs>
  <g id="Log_out-2" data-name="Log out" clip-path="url(#clip-path)">
    <path id="Path_11" data-name="Path 11" d="M477.4,390.959c.019-.028.031-.058.047-.087s.036-.061.05-.094a1.088,1.088,0,0,0,.044-.141c0-.019.013-.036.016-.055a1.06,1.06,0,0,0-.289-.964l-5.312-5.312a1.063,1.063,0,0,0-1.5,1.5l3.5,3.5h-10.9a1.063,1.063,0,1,0,0,2.125h10.893l-3.5,3.5a1.062,1.062,0,1,0,1.5,1.5l5.307-5.308A1.05,1.05,0,0,0,477.4,390.959Z" transform="translate(-443.582 -375.496)" fill="#1aaae2"/>
    <path id="Path_12" data-name="Path 12" d="M418.6,372.421a1.063,1.063,0,0,0-1.062,1.063v6.375a1.773,1.773,0,0,1-1.771,1.771h-4.6V359.671a2.86,2.86,0,0,0-1.929-2.694l-2.543-.847h9.076a1.773,1.773,0,0,1,1.771,1.771v6.375a1.062,1.062,0,1,0,2.125,0V357.9a3.9,3.9,0,0,0-3.9-3.9H399.833A2.836,2.836,0,0,0,397,356.837v25.5a2.859,2.859,0,0,0,1.93,2.694l8.526,2.84a2.914,2.914,0,0,0,.878.132,2.836,2.836,0,0,0,2.833-2.833v-1.417h4.6a3.9,3.9,0,0,0,3.9-3.9v-6.375A1.063,1.063,0,0,0,418.6,372.421Zm-9.562,12.75a.71.71,0,0,1-.708.708.765.765,0,0,1-.231-.031l-8.486-2.827a.736.736,0,0,1-.492-.683v-25.5a.71.71,0,0,1,.708-.708.774.774,0,0,1,.231.031l8.486,2.828a.736.736,0,0,1,.492.683Z" transform="translate(-397 -354.004)" fill="#1aaae2"/>
  </g>
</svg>
