<svg xmlns="http://www.w3.org/2000/svg" width="37.244" height="37.031" viewBox="0 0 37.244 37.031">
  <g id="Outbound_icon" data-name="Outbound icon" transform="translate(1 1)">
    <path id="Path_245" data-name="Path 245" d="M-14872.326-6358.863V-6371.9h-23.58v35.031h23.58v-11.716" transform="translate(14895.906 6371.896)" fill="none" stroke="#fff" stroke-linecap="round" stroke-linejoin="round" stroke-width="2"/>
    <path id="Path_246" data-name="Path 246" d="M480.766,392.479a1.193,1.193,0,0,0,.057-.105,1.284,1.284,0,0,0,.061-.115,1.322,1.322,0,0,0,.053-.172c.006-.023.015-.044.02-.067a1.291,1.291,0,0,0-.352-1.174l-6.472-6.472A1.295,1.295,0,0,0,472.3,386.2l4.265,4.264H463.293a1.294,1.294,0,1,0,0,2.589h13.271l-4.261,4.261a1.294,1.294,0,1,0,1.831,1.83l6.466-6.466A1.275,1.275,0,0,0,480.766,392.479Z" transform="translate(-444.74 -373.856)" fill="#fff"/>
  </g>
</svg>
